/* XPM */
static char *_567504977555[] = {
/* columns rows colors chars-per-pixel */
"64 64 256 2 ",
"   c black",
".  c #0000A8",
"X  c #00A800",
"o  c #00A8A8",
"O  c #A80000",
"+  c #A800A8",
"@  c #A85400",
"#  c #4C4436",
"$  c gray33",
"%  c #5454FC",
"&  c #524A42",
"*  c #5E5246",
"=  c #736352",
"-  c #685D4C",
";  c #FCFC54",
":  c gray99",
">  c #ECECEC",
",  c gainsboro",
"<  c #D0D0D0",
"1  c #C0C0C0",
"2  c #B4B4B4",
"3  c gray66",
"4  c #989898",
"5  c gray55",
"6  c #7C7C7C",
"7  c gray44",
"8  c #646464",
"9  c gray33",
"0  c #484848",
"q  c gray22",
"w  c #2C2C2C",
"e  c #202020",
"r  c #FC0000",
"t  c #EC0000",
"y  c #E00000",
"u  c #D40000",
"i  c #C80000",
"p  c #BC0000",
"a  c #B00000",
"s  c #A40000",
"d  c #980000",
"f  c #880000",
"g  c #7C0000",
"h  c #700000",
"j  c #640000",
"k  c #580000",
"l  c #4C0000",
"z  c #400000",
"x  c #FCD8D8",
"c  c #FCB8B8",
"v  c #FC9C9C",
"b  c #FC7C7C",
"n  c #FC5C5C",
"m  c #FC4040",
"M  c #FC2020",
"N  c #FC0000",
"B  c #FCA85C",
"V  c #FC9840",
"C  c #FC8820",
"Z  c #FC7800",
"A  c #E46C00",
"S  c #CC6000",
"D  c #B45400",
"F  c #9C4C00",
"G  c #FCFCD8",
"H  c #FCFCB8",
"J  c #FCFC9C",
"K  c #FCFC7C",
"L  c #FCF85C",
"P  c #FCF440",
"I  c #FCF420",
"U  c #FCF400",
"Y  c #E4D800",
"T  c #CCC400",
"R  c #B4AC00",
"E  c #9C9C00",
"W  c #848400",
"Q  c #706C00",
"!  c #585400",
"~  c #404000",
"^  c #849C7B",
"/  c #738C6B",
"(  c #6B7B63",
")  c #637352",
"_  c #5A6B52",
"`  c #525A4A",
"'  c #4A5242",
"]  c #425239",
"[  c #394A39",
"{  c #313931",
"}  c #313929",
"|  c #293129",
" . c #293121",
".. c #212921",
"X. c #182118",
"o. c #181818",
"O. c #00FC00",
"+. c #00EC00",
"@. c #00E000",
"#. c #00D400",
"$. c #04C800",
"%. c #04BC00",
"&. c #04B000",
"*. c #04A400",
"=. c #049800",
"-. c #048800",
";. c #047C00",
":. c #047000",
">. c #046400",
",. c #045800",
"<. c #044C00",
"1. c #044000",
"2. c #C8BFB2",
"3. c #A89A85",
"4. c #9A8C77",
"5. c #7CFCF8",
"6. c #5CFCFC",
"7. c #40FCFC",
"8. c #20FCFC",
"9. c #00FCFC",
"0. c #00E4E4",
"q. c #00CCCC",
"w. c #00B4B4",
"e. c #009C9C",
"r. c #008484",
"t. c #007070",
"y. c #005858",
"u. c #004040",
"i. c #94846B",
"p. c #8C7B67",
"a. c #847B63",
"s. c #81735D",
"d. c #7B6B5A",
"f. c #007CCC",
"g. c #006CB4",
"h. c #005C9C",
"j. c #736B5A",
"k. c #736B52",
"l. c #9C9CFC",
"z. c #7C80FC",
"x. c #5C60FC",
"c. c #4040FC",
"v. c #2024FC",
"b. c #0004FC",
"n. c #0000FC",
"m. c #0000EC",
"M. c #0000E0",
"N. c #0000D4",
"B. c #0000C8",
"V. c #0000BC",
"C. c #0000B0",
"Z. c #0000A4",
"A. c #000098",
"S. c #000088",
"D. c #00007C",
"F. c #000070",
"G. c #000064",
"H. c #000058",
"J. c #00004C",
"K. c #000040",
"L. c #282828",
"P. c #FCE034",
"I. c #FCD424",
"U. c #FCCC18",
"Y. c #FCC008",
"T. c #FCB400",
"R. c #B420FC",
"E. c #A800FC",
"W. c #9800E4",
"Q. c #8000CC",
"!. c #7400B4",
"~. c #60009C",
"^. c #500084",
"/. c #440070",
"(. c #340058",
"). c #280040",
"_. c #FCD8FC",
"`. c #FCB8FC",
"'. c #FC9CFC",
"]. c #FC7CFC",
"[. c #FC5CFC",
"{. c #FC40FC",
"}. c #FC20FC",
"|. c #FC00FC",
" X c #E000E4",
".X c #C800CC",
"XX c #B400B4",
"oX c #9C009C",
"OX c #840084",
"+X c #6C0070",
"@X c #580058",
"#X c #400040",
"$X c #FCE8DC",
"%X c #FCE0D0",
"&X c #FCD8C4",
"*X c #FCD4BC",
"=X c #FCCCB0",
"-X c #FCC4A4",
";X c #FCBC9C",
":X c #FCB890",
">X c #FCB080",
",X c #FCA470",
"<X c #FC9C60",
"1X c #F0945C",
"2X c #E88C58",
"3X c #DC8854",
"4X c #D08050",
"5X c #C87C4C",
"6X c #BC7848",
"7X c #B47044",
"8X c #A86840",
"9X c #A0643C",
"0X c #9C6038",
"qX c #905C34",
"wX c #885830",
"eX c #80502C",
"rX c #744C28",
"tX c #6C4824",
"yX c #5C4020",
"uX c #543C1C",
"iX c #483818",
"pX c #403018",
"aX c #382C14",
"sX c #28200C",
"dX c #600064",
"fX c #006464",
"gX c #006060",
"hX c #00001C",
"jX c #00002C",
"kX c #302410",
"lX c #480048",
"zX c #500050",
"xX c #000034",
"cX c gray11",
"vX c #4C4C4C",
"bX c gray36",
"nX c gray25",
"mX c gray19",
"MX c #343434",
"NX c #2E2B22",
"BX c #B8E8E8",
"VX c #9CDCDC",
"CX c #74C8C8",
"ZX c #48C0C0",
"AX c #20B4B4",
"SX c #20B0B0",
"DX c #00A4A4",
"FX c #009898",
"GX c #008C8C",
"HX c #008484",
"JX c #007C7C",
"KX c #007878",
"LX c #007474",
"PX c #007070",
"IX c #006C6C",
"UX c #980088",
/* pixels */
"w w w w w w w w w w w w w w w w w w w w w w w w w w w w w w w w w w w w w w w w w w w w w w w w w w w w w w w w w w w w w w w w ",
"p.p.p.p.p.p.p.p.p.p.= - - * L.w w * - - = p.p.p.p.p.p.p.p.p.p.p.p.p.p.p.p.p.p.p.p.p.= - - * L.w w * - - = p.p.p.p.p.p.p.p.p.p.p.",
"= k.k.= - = k.k.k.= p.p.k.# e w w & - = - k.k.k.p.k.= k.k.= k.= p.p.k.- = - k.* * - - - k.# e w w & k.k.k.k.- # # - * - - = k.= ",
"p.p.= k.= - = p.p.p.p.k.p.# e w w & & * k.k.k.p.p.k.= = - = = k.p.k.p.= k.k.k.= = k.= - = # e w w & p.p.k.- - # # - * = - - p.p.",
"p.p.- - = = k.k.k.p.k.k.k.# e w w & - k.= k.k.p.k.k.= k.= = k.= k.p.k.k.= = k.i.= k.- = - # e w w & k.k.p.k.= = * # = k.k.k.p.p.",
"k.p.= k.k.= = p.p.p.p.p.* # e w w & k.- k.k.k.k.k.k.= - - = - = k.p.k.p.i.p.p.k.= = - - * # e w w & = k.p.- - k.k.- - = k.k.p.i.",
"k.p.k.k.= k.k.k.k.p.k.p.k.# e w w & p.p.k.k.= = - k.k.k.= - * = - - k.k.p.p.k.k.k.- * # * # e w w & k.k.k.p.p.k.k.p.k.p.p.k.p.k.",
"k.= k.= k.k.p.p.p.k.k.k.k.# e w w & p.k.p.= - = = - k.- = = & = = - = k.p.k.k.= - = - # * # e w w & - k.= k.k.k.p.i.p.k.k.p.p.p.",
"cXcXcXcXcXNXNXNXNXNX} # # # e w w # # # } NXNXNXNXcXcXcXcXcXcXcXcXcXcXcXcXNXNXNXNXNX} # # # e w w # # # } NXNXNXNXcXcXcXcXcXcXcX",
"cXcXcXcXcXcXcXcXcXcXcXcXcXcXcXw w cXcXcXcXcXcXcXcXcXcXcXcXcXcXcXcXcXcXcXcXcXcXcXcXcXcXcXcXcXcXw w cXcXcXcXcXcXcXcXcXcXcXcXcXcXcX",
"0X0XqXwXwXrXeXeXwXeX9XwXwX0X8XeX0XwXeXeXeXeXqXeXrXeXwXeXeXeXeXrXeXrXrXwXeX0XeXwXeXeXwXqXeXeXeXtXeXrXeXrXeXrXeXwX0XeXqXwXeXeX0XrX",
"tXtXyXyXuXiXuXuXuXuXyXiXiXyXrXyXtXyXuXuXiXuXyXuXiXiXuXuXuXuXyXuXtXuXiXiXiXiXuXuXuXiXuXyXiXuXyXuXtXuXyXiXuXiXuXuXyXiXuXuXuXyXyXuX",
"aXpXaXpXpXiXpXaXpXpXiXpXpXaXpXaXpXpXiXpXaXaXpXpXpXpXpXaXpXaXpXaXpXpXiXaXaXaXaXpXpXaXpXpXpXaXpXaXpXpXiXaXpXaXpXpXpXpXaXpXaXpXpXiX",
"d d d O a a O d f d d f d d s O O O s s d s s s s s s s s O a a a a O s d f d d d d s O O s O a i i p p p i p i i p a a a O d d ",
"f f d s s s d f f d s s s s O O a a a s d d s s s s O O a a p a a a s d d f f d s s s a a a a p i u u i p i i i i p a a a a s d ",
"d f d s s d d d d s s O a O O O s O a O d s s a a a a a p a a p a a s f f f f d d s O p i p p i u u u i a a p i p p p a a O s d ",
"d d d s s s d s O a p p p a O s s s O O s O a p i p a a a O O a a O d f f f d d s O a p i i i i i i i p s s a p p i i a s s d d ",
"s s s s s s s s a p i p p p a s s d s O a a a p i i p a O a a O O s d d f f f s O a a a p i i i i p a a O s s a p p a s d d d d ",
"s s s d d s O O a p p i p a a O s d s a p i i i i i i a O a a a O s d f f g g d s O a O a i i p a O s s O O d d s s O s d d d s ",
"s s s d s O a a p i i i p a a a O O a p p i i i i i u i a O O a O s s d f f f d s d s s s a p a O d d d s d f g f d O a s d s s ",
"s O O O p p p p p i u u i i i i p i u u i u i i i u u u p O s O O s s s d f f d d d d s d d s s s d d d s d f g f d s s O s d d ",
"O a a p i i i i i i i u y y y u i i u u u i u u u u u i p a s s O s s s d f g g g f d s d s s s O s d s s s s f f d d s a O d s ",
"a p p i i i i i i u u y y y y u i p p i i i u u u i i i p a O s s s s d f g g h h f d s O O O O a a O s s a a d f f d d O a a a ",
"p p i i i u u u y y y y y y y u i a p i u u i i p p p p a O a s d s s s f g g h h f d O a p p p a a O s s a a s f f d d s a a p ",
"i i i i u u y y y y y u u y u i p p p i u u i p p p p p a s s d d d d s d g g h j g d O a p i i p a a O s s O s d d s s O a p i ",
"i i i i i i y y y y y i p i p a a p p p i i i p a a a a s d d f f f f d d d f g h g d s a i i u i a O s d d s s s O s O a a p i ",
"i i p p p i i u u u u i p p p O a p p a p i i p p a s d f f f f f f f d s d f f f f d O a p i i i a s d d d s O a a a a p p p i ",
"i i p a a a p p i i i p a O a O O a a a p p p p a s d f f f g f f f f d d s d d d d d O a a p p a s s s O O a a p i p p p p p p ",
"p p p O s O a a a p p a O s s s O a a a a a a a s d d f g g g f d d d d d s O s d s d s O O O a a a O a a p p p i u i p p i p a ",
"a a p a s O O s d s s O a s s O a a p p p a O a a d d d f f f f f d s s s O O s s s d d d s s a p i p p p i u u u y y i p p p p ",
"a a a a O s s d d d d s a O O a a p p p p a O a a O s s d f f f d d s s d s s s O s d f d s O O a i i i i i u u u u y u p p p p ",
"a s d d s d f d d s d d O a a a O a p i i p a a O O s d d d f d d d d s d s s O a O s d d d s s a i i i u u u y u u i i i p p p ",
"a d g g d d f d s s s d O p p i p p i u u i p a a O s s O s d d d d f d s s O a p a a O d d s O p u u y y u u u u u i i i p a a ",
"O s f h g d d s O O s s s a p i i i p i i i p p a a a O a a d d d s s s s O a p i p a a s s O a i u y y u u i p i i p a p a s d ",
"d d d f g f s s O O a O s s a a p i p i i i i i p a O s a a d f f s a O a p i i i i p p p a a a p i u u i i p O a a O s s s d f ",
"f f d d f f d O O O a O d d s O p p i i p i u u i p O s s s s d f d a a p i u u u u u i p p a O a p i p a a a s s s s s s d s d ",
"d d d s d g f s s s O O d f f d O a p p p p i i i i a d d d d d d d a i i u u u u u i p a a a s s O a a O O O s d d d d d f d d ",
"s s s d d g h g d s O a O d d d s a p p a a p p i i a d f g f d d d a i i u u u i i p a s O a s f f d s a O s s d d f f g f f d ",
"O s d d f f h h f s a a a O s s s a p p p a a p p i p d f f f d d s a p i u i i i p p O d d s d f f f d s s s s s d d f f d d s ",
"O O s f f f g h g d O a a a a a a O a a p a O s O p p d f f f d O O s O p i i i p p a O d g f s d f f d d d s s s O a O d s s d ",
"s s d f f f f g h f d a a p p p a O O a a a a O s O a s d f d s s O s O a p p p a a O O s f f d d d d d d d s O a a a a O s d f ",
"d f f f d d f f g g f s O a p p p a a p p p i p s s s s s d d d s a a p p a a a a s s s O s d d d d d d d d s a p p p p a s d d ",
"f f f f d d d d g h h d s a p i p a p p p a p p O s d s s d d d s a p p i p O O O O s s s s s d d d d d d f s a p i i p p a d d ",
"h g f f d d d d f g h h d O i i i a O a a a a a a s d d s s d d s a a p i p O s s O s s d s s s d d d s O s O p i u i p a O d d ",
"f f f d d f f f f f g g f s p i p p s s O a a a a O d f s a O s s s a p i i p O s s s s d s O O O O s O a p p i i u i i p O s d ",
"d d f d d d f g f f f f f d O p p a O s s s a a a O d f d s O s d d a p p i i a d d d s d s O O a a a O p i u i i u u i p p p p ",
"s d f f d d f f f d d f d d d s a a a O s O a a a s d d f d s s d d O p p p p O f f d d d s s O a a a a i y y u i i i i p p p i ",
"p s d f f d d d d s O s d f f d s a a a a a p p p O d d f g f s s s O a p p p a s d f f d d s O a a a p i y y y u i i p p a a p ",
"p O s d f d s d d s O s d f f d s a p p p a p p p O s d f g f d O s s s O a p p p O d f f d d O a a p i i y y y y i p p a a a a ",
"O O s f f f d s s s s a O d d d s a p p p a a a a O s d f f g f d d d d s O a a a a s d f d s a p p p i i i y y y u p p a a a a ",
"s O s d d d d s a a O p i p p a a p p p a O s s O O O d f f g h g f d d d a p i p a O s d d O a p p p p i p i y y y i p a O O a ",
"eXeXeXeXrXeXrXrXwXeX0XeXwXeXeXwXqXeXeXeXtXeXrXeXrXeXrXeXwX0XeXqXwXeXeX0XrX0X0XqXwXwXrXeXeXwXeX9XwXwX0X8XeX0XwXeXeXeXeXqXeXrXeXwX",
"uXuXuXyXuXtXuXiXiXiXiXuXuXuXiXuXyXiXuXyXuXtXuXyXiXuXiXuXuXyXiXuXuXuXyXyXuXtXtXyXyXuXiXuXuXuXuXyXiXiXyXrXyXtXyXuXuXiXuXyXuXiXiXuX",
"aXpXaXpXaXpXpXiXaXaXaXaXpXpXaXpXpXpXaXpXaXpXpXiXaXpXaXpXpXpXpXaXpXaXpXpXiXaXpXaXpXpXiXpXaXpXpXiXpXpXaXpXaXpXpXiXpXaXaXpXpXpXpXpX",
"L.L.L.L.L.L.L.L.L.L.L.L.L.L.L.w w L.L.L.L.L.L.L.L.L.L.L.L.L.L.L.L.L.L.L.L.L.L.L.L.L.L.L.L.L.L.w w L.L.L.L.L.L.L.L.L.L.L.L.L.L.L.",
"w * - - = p.p.p.p.p.p.p.p.p.p.p.p.p.p.p.p.p.p.p.p.p.= - - * L.w w * - - = p.p.p.p.p.p.p.p.p.p.p.p.p.p.p.p.p.p.p.p.p.= - - * L.w ",
"w & k.k.p.k.p.p.i.p.p.p.i.p.k.k.p.p.p.k.- * = - k.k.k.p.p.# e w w & p.k.p.= k.k.k.i.i.i.p.i.p.k.k.p.p.k.k.k.= - k.p.p.k.i.# e w ",
"w & k.k.k.p.= i.i.3.3.i.k.= k.k.k.p.k.p.k.- = k.k.p.k.i.p.# e w w & - k.= = = k.k.k.i.p.i.p.p.p.k.p.= k.k.k.= = = = k.p.i.# e w ",
"w & = - = p.k.i.i.i.i.i.k.p.= - = k.= k.p.= - p.p.p.k.i.p.# e w w & * k.k.= k.= k.= p.k.p.p.k.k.k.= - = = = k.= p.k.k.p.k.# e w ",
"w & * & = * i.p.i.i.3.i.k.= - = - k.k.k.k.p.= k.p.p.i.i.k.# e w w & k.k.= = - - - - k.k.p.p.k.= = & k.- k.p.k.k.p.p.k.p.p.# e w ",
"w & = * = k.k.p.p.i.i.3.p.k.= & * = = p.k.p.k.k.p.p.p.p.k.# e w w & * = k.= * - - - - - p.k.p.k.= * = = - p.p.p.i.i.k.= - # e w ",
"w & = - * = k.k.p.p.k.p.k.k.k.= - = = p.k.p.p.k.k.p.k.p.p.# e w w & = * - * = & - = * - k.= p.p.k.k.- k.= k.i.p.p.k.p.p.- # e w ",
"w # # # } NXNXNXNXcXcXcXcXcXcXcXcXcXcXcXcXNXNXNXNXNX} # # # e w w # # # } NXNXNXNXcXcXcXcXcXcXcXcXcXcXcXcXNXNXNXNXNX} # # # e w ",
"w cXcXcXcXcXcXcXcXcXcXcXcXcXcXcXcXcXcXcXcXcXcXcXcXcXcXcXcXcXcXw w cXcXcXcXcXcXcXcXcXcXcXcXcXcXcXcXcXcXcXcXcXcXcXcXcXcXcXcXcXcXw "
};
